<svg width="68" height="68" viewBox="0 0 68 68" fill="none" xmlns="http://www.w3.org/2000/svg">
<path d="M13.6 40.8H40.8V34H13.6V40.8ZM13.6 30.6H54.4V23.8H13.6V30.6ZM13.6 20.4H54.4V13.6H13.6V20.4ZM0 68V6.8C0 4.93 0.665833 3.32917 1.9975 1.9975C3.32917 0.665833 4.93 0 6.8 0H61.2C63.07 0 64.6708 0.665833 66.0025 1.9975C67.3342 3.32917 68 4.93 68 6.8V47.6C68 49.47 67.3342 51.0708 66.0025 52.4025C64.6708 53.7342 63.07 54.4 61.2 54.4H13.6L0 68ZM10.71 47.6H61.2V6.8H6.8V51.425L10.71 47.6Z" fill="#1C1B1F"/>
</svg>
