<svg width="68" height="68" viewBox="0 0 68 68" fill="none" xmlns="http://www.w3.org/2000/svg">
<path d="M60.4444 34C60.4444 26.6333 57.8787 20.3843 52.7472 15.2528C47.6157 10.1213 41.3667 7.55556 34 7.55556V0C38.7222 0 43.1454 0.897222 47.2694 2.69167C51.3935 4.48611 54.9824 6.91019 58.0361 9.96389C61.0898 13.0176 63.5139 16.6065 65.3083 20.7306C67.1028 24.8546 68 29.2778 68 34H60.4444ZM45.3333 34C45.3333 30.8519 44.2315 28.1759 42.0278 25.9722C39.8241 23.7685 37.1481 22.6667 34 22.6667V15.1111C39.2259 15.1111 43.6806 16.9528 47.3639 20.6361C51.0472 24.3194 52.8889 28.7741 52.8889 34H45.3333ZM64.0333 68C56.163 68 48.387 66.2843 40.7056 62.8528C33.0241 59.4213 26.0352 54.5574 19.7389 48.2611C13.4426 41.9648 8.5787 34.9759 5.14722 27.2944C1.71574 19.613 0 11.837 0 3.96667C0 2.83333 0.377778 1.88889 1.13333 1.13333C1.88889 0.377778 2.83333 0 3.96667 0H19.2667C20.1481 0 20.9352 0.299074 21.6278 0.897222C22.3204 1.49537 22.7296 2.2037 22.8556 3.02222L25.3111 16.2444C25.437 17.2519 25.4056 18.1019 25.2167 18.7944C25.0278 19.487 24.6815 20.0852 24.1778 20.5889L15.0167 29.8444C16.2759 32.1741 17.7713 34.425 19.5028 36.5972C21.2343 38.7694 23.1389 40.863 25.2167 42.8778C27.1685 44.8296 29.2148 46.6398 31.3556 48.3083C33.4963 49.9769 35.763 51.5037 38.1556 52.8889L47.0333 44.0111C47.6 43.4444 48.3398 43.0194 49.2528 42.7361C50.1657 42.4528 51.063 42.3741 51.9444 42.5L64.9778 45.1444C65.8593 45.3963 66.5833 45.8528 67.15 46.5139C67.7167 47.175 68 47.9148 68 48.7333V64.0333C68 65.1667 67.6222 66.1111 66.8667 66.8667C66.1111 67.6222 65.1667 68 64.0333 68ZM11.4278 22.6667L17.6611 16.4333L16.0556 7.55556H7.65C7.96482 10.137 8.40556 12.687 8.97222 15.2056C9.53889 17.7241 10.3574 20.2111 11.4278 22.6667ZM45.2389 56.4778C47.6944 57.5481 50.1972 58.3981 52.7472 59.0278C55.2972 59.6574 57.863 60.0667 60.4444 60.2556V51.9444L51.5667 50.15L45.2389 56.4778Z" fill="#1C1B1F"/>
</svg>
